# xmcd
#
# Track frame offsets: 
#        150
#        11386
#        23159
#        34515
#        46709
#        58376
#        69824
#        81254
#        94112
#        109847
#        121940
#        132389
#        145148
#        158854
#        170758
#        183054
#        194504
#        204090
#        215330
#        226537
#        237296
#        252588
#        264031
#        281422
#        298249
#
# Disc length: 4167 seconds
#
# Revision: 1
# Processed by: cddbd v1.5.2PL0 Copyright (c) Steve Scherf et al.
# Submitted via: ExactAudioCopyFreeDBPlugin 1.0
#
DISCID=56104519
DTITLE=Various Artist - Love and Affection:  More Motown Girls
DYEAR=2015
DGENRE=Soul
TTITLE0=Brenda Holloway - Reassure Me That You Love Me
TTITLE1=Gladys Knight and The Pips - Any Girl in Love (Knows What I'm Go
TTITLE1=ing Through)
TTITLE2=Barbara Randolph - My Love is Your Love (Forever)
TTITLE3=Martha and The Vandellas - This is the Love (I've Been Waiting F
TTITLE3=or)
TTITLE4=Debbie Dean - I Can't Make it Without You
TTITLE5=Liz Lands - Midnight Johnny (alternate early version)
TTITLE6=The Lewis Sisters - Many Good Times
TTITLE7=LaBrenda Ben - Just Go on Sleeping
TTITLE8=Brenda Holloway - Lonely Teardrops
TTITLE9=Hattie Littles - Now That Love is Gone
TTITLE10=LaBrenda Ben - Fugitive
TTITLE11=Linda Griner - Envious (alternate fast version)
TTITLE12=Connie Haines - Mr. Pride and Mr. Gloom
TTITLE13=Oma Heard - Mama Tried to Warn Me
TTITLE14=Chris Clark - Check Yourself
TTITLE15=Barbara McNair - Come Back Half Way
TTITLE16=Martha and The Vandellas - Mother Tell Me What to Do
TTITLE17=The Marvelettes - Girls Need Love and Affection
TTITLE18=Rita Wright - Give Back the Good Things
TTITLE19=The Lollipops - Go tor Yourself
TTITLE20=Barbara McNair - The Good Times are Gone
TTITLE21=Gladys Knight and The Pips - The Things Time Can't Erase
TTITLE22=Yvonne Fair - Close My Crying Eyes
TTITLE23=Chris Clark - Forgotten
TTITLE24=Kim Weston - Lover Man (Oh Where Can You Be)
EXTD=
EXTT0=
EXTT1=
EXTT2=
EXTT3=
EXTT4=
EXTT5=
EXTT6=
EXTT7=
EXTT8=
EXTT9=
EXTT10=
EXTT11=
EXTT12=
EXTT13=
EXTT14=
EXTT15=
EXTT16=
EXTT17=
EXTT18=
EXTT19=
EXTT20=
EXTT21=
EXTT22=
EXTT23=
EXTT24=
PLAYORDER=
